<?xml version="1.0" encoding="utf-8"?>
<!-- Generator: Adobe Illustrator 19.0.0, SVG Export Plug-In . SVG Version: 6.00 Build 0)  -->
<svg version="1.1" id="Layer_1" xmlns="http://www.w3.org/2000/svg" xmlns:xlink="http://www.w3.org/1999/xlink" x="0px" y="0px"
	 width="500px" height="400px" viewBox="0 0 500 400" enable-background="new 0 0 500 400" xml:space="preserve">
<path id="XMLID_184_" fill="#FFFFFF" d="M400.298,373.132c-20.705-0.538-35.935-9.863-44.111-27.925
	c-10.191-22.515-18.608-45.834-27.761-68.818c-1.756-4.41-3.641-8.798-4.98-13.339c-1.613-5.47-4.323-6.422-9.385-3.901
	c-33.558,16.708-67.38,32.895-100.764,49.941c-37.395,19.094-74.346,39.054-111.632,58.365
	c-17.797,9.217-36.126,11.793-54.388,1.119c-21.004-12.277-30.482-38.747-21.048-64.401c5.008-13.618,13.201-26.257,21.148-38.568
	c46.16-71.509,99.188-137.961,151.719-204.766c5.866-7.46,11.493-15.193,18.053-22.008c24.521-25.474,63.729-24.715,83.555,1.704
	c4.263,5.681,7.238,12.556,9.77,19.272c17.109,45.371,33.933,90.849,50.865,136.286c3.285,8.816,3.328,8.824,11.412,4.127
	c15.774-9.165,31.803-17.927,47.241-27.629c27.189-17.087,54.25,0.634,56.983,29.634c0.623,6.613-0.217,13.489-1.242,20.112
	c-4.892,31.596-9.175,63.326-15.431,94.658c-5.596,28.026-21.78,47.903-50.854,54.965
	C406.323,372.718,403.032,372.797,400.298,373.132z M78.923,359.295c7.289-2.701,15.164-4.591,22.037-8.325
	c68.487-37.206,136.777-74.775,205.237-112.031c5.528-3.008,6.688-6.033,4.609-11.88c-12.558-35.313-24.765-70.752-37.227-106.1
	c-1.569-4.45-3.574-8.84-6.016-12.87c-7.102-11.723-17.98-14.461-29.354-6.966c-5.134,3.383-9.751,7.814-13.865,12.427
	c-7.477,8.385-14.268,17.378-21.582,25.913c-37.391,43.63-75.289,86.836-112.078,130.968
	c-13.853,16.618-25.801,34.941-37.462,53.224c-7.282,11.417-3.276,23.177,8.722,29.755
	C66.837,356.094,72.612,357.172,78.923,359.295z M444.68,209.654c0.066-7.759-4.636-10.741-11.268-7.642
	c-18.099,8.457-36.046,17.237-54.089,25.814c-3.77,1.792-4.993,4.027-3.568,8.317c8.028,24.165,15.57,48.495,23.901,72.552
	c1.228,3.547,5.75,8.257,8.793,8.291c3.818,0.042,8.081-3.749,11.369-6.746c1.765-1.609,2.086-4.971,2.722-7.622
	c6.35-26.467,12.631-52.951,18.929-79.431C442.625,218.333,443.773,213.478,444.68,209.654z"/>
</svg>
